<?xml version="1.0" encoding="UTF-8"?><svg id="Layer_1" xmlns="http://www.w3.org/2000/svg" viewBox="0 0 741.76 432.73"><defs><style>.cls-1{stroke-width:7.82px;}.cls-1,.cls-2,.cls-3,.cls-4{fill:none;stroke:#010101;stroke-linecap:round;stroke-linejoin:round;}.cls-2{stroke-width:7.35px;}.cls-3{stroke-width:7.66px;}.cls-4{stroke-width:9.87px;}.cls-5{fill:#010101;stroke-width:0px;}</style></defs><g id="g497"><path id="path383" class="cls-1" d="m110.12,63.26c-.74,0,13.75,0,21.43,7.28,7.69,7.28,6.51,22.18,15.78,29.12,9.26,6.94,23.76,5.91,31.15,15.78s-6.29,27.86-7.69,37.62c-2.52,17.65-3.47,33.81,6.06,49.74,9.02,14.94,29.46,32.64,45.33,38.99,6.38,2.55,21.5,11.92,26.26,16.68,5.75,5.75,9.17,18.82,10.1,24.39,5.84,34.96-40.03,27.9-56.21,44.09-9.58,9.58,1.15,45.08,6.47,55.78,7.71,15.39,20.69,33.18,37.62,37.39,2.98.74,12.85,2.1,15.78-.83,1.69-1.69,2.86-10.53,2.41-12.69-.81-4.03-1.87-9.94-4.51-13.34-4.96-6.6-19.99-16.12-9.31-24.68,5.25-4.19,22.54-6.47,48.12-15.78,25.58-9.31,52.58-48.28,52.58-55.4"/><path id="path385" class="cls-3" d="m317.97,115.82c.83,0-14.7-8.72-19.02-11.27-13.79-8-26.57-17.62-38.07-28.67-14.83-14.83-29.03-28.92-48.93-36.38-14.13-5.32-30.02-4.26-43.68-9.71-11.77-4.71-17.22-23.42-29.5-25.87-5.14-1.04-5.27,7.8-5.27,11.27,0,.18.14,1.62-.38,1.62-.92,0-6.76-10.19-8.5-8.5s.56,23.1,1.22,26.28c.29,1.51,3.61,7.35,2.82,8.5-6.4,9.62-17.78,17.38-23.85,27.5-7.03,11.72-5.32,23.31-14.15,34.37-6.76,8.45-35.25,25.6-36.81,28.71-5.09,10.19,12.46,30.61,21.84,31.94,10.53,1.51,23.71-2.05,34.35-3.22,6.12-.58,12.29-.04,18.21,1.6,19,4.76,27.05,45.62,33.56,61.87,2.46,6.13,15.44,25.67,14.15,30.74-6.2,25.04-27.54,49.68-48.05,64.96-6.33,4.78-18.32,14.67-36.38,28.71-18.05,14.04-26.69,22.25-44.49,29.93-14.24,6.15-25.74,16.39-37.59,25.87-5.5,4.51-8.09,10.53-2.43,16.18,11.63,11.61,31.55,5.68,43.68-.41,13.34-6.76,28.13-10.77,41.63-16.18,16.68-6.76,34.15-14.99,52.18-18.59,5.59-1.13,8.18-6.02,12.53-9.02,6.76-4.51,13.91-11.09,21.03-14.97,8.9-4.85,19.86-5.88,18.59-5.25"/><path id="path387" class="cls-2" d="m146.52,36.57c16.09,8.05,1.22-13.75-2.03-16.99"/><path id="path389" class="cls-2" d="m108.5,93.6c5.77-3.85,12.89.97,18.19,3.63,1.76.88,7.71,2.03,6.87,2.43"/><path id="path391" class="cls-2" d="m120.83,101.49c2.77-7.73-6.02,5.3-5.05,6.27,2.12,2.1,7.1-4.69,8.09-5.68,1.71-1.17,3.63-1.99,5.66-2.41,0,0-4.51,2.84-6.87,4.03-.81.41-2.37,2.12-2.43,1.22-.02-1.17.19-2.33.61-3.43Z"/><polyline id="polyline393" class="cls-2" points="323.95 120.06 439.55 173.88 494.59 168.99 526.41 129.23"/><polyline id="polyline395" class="cls-2" points="495.83 169.6 571.67 154.93 604.08 109.67 599.19 69.3"/><polyline id="polyline397" class="cls-2" points="569.22 157.99 655.47 110.28 667.1 73.58"/><polyline id="polyline399" class="cls-2" points="574.11 154.32 620.6 224.66 689.12 267.49 735.6 254.64"/><polyline id="polyline401" class="cls-2" points="657.3 180.62 622.45 223.45 532.52 219.16 467.68 227.73 429.77 222.21 375.31 212.42 308.64 191.01 254.21 196.51"/><polyline id="polyline403" class="cls-2" points="659.75 215.49 623.67 222.84 609.61 298.07 638.34 316.42 675.04 322.53"/><polyline id="polyline405" class="cls-2" points="673.21 368.42 640.8 316.42 616.32 339.66 632.23 364.74"/><polyline id="polyline407" class="cls-2" points="648.73 420.39 584.52 383.09 550.87 339.66 616.32 339.05"/><polyline id="polyline409" class="cls-2" points="587.59 416.11 527.02 399.61 549.65 340.26 608.37 300.51 549.65 276.05 534.98 222.84 571.06 158.6"/><polyline id="polyline411" class="cls-2" points="527.63 398.98 499.5 363.5 548.43 339.66 479.92 330.48 387.55 354.33 355.14 362.29 311.1 348.22"/><polyline id="polyline413" class="cls-2" points="500.11 362.89 479.92 332.92 485.42 293.16 550.26 274.2 517.24 332.92"/><polyline id="polyline415" class="cls-2" points="497.65 168.99 465.85 226.49 484.2 291.33 422.42 276.05 478.7 328.03"/><polyline id="polyline417" class="cls-2" points="338.01 323.14 388.79 350.68 421.81 276.05 354.53 297.44 330.66 264.42"/><polyline id="polyline419" class="cls-2" points="322.73 118.23 371.66 210.6 419.35 273.59 464.63 227.73"/><polyline id="polyline421" class="cls-2" points="421.2 273.59 430.98 222.84 493.37 169.6"/><line id="line423" class="cls-2" x1="439.55" y1="173.27" x2="375.31" y2="209.99"/><line id="line425" class="cls-2" x1="308.64" y1="191.01" x2="292.75" y2="160.43"/><line id="line427" class="cls-2" x1="527.02" y1="400.22" x2="585.74" y2="382.48"/><path id="path429" class="cls-5" d="m247,197.26c-.31-3.04,1.84-5.78,4.87-6.2,3-.27,5.68,1.88,6.06,4.87.3,3-1.78,5.71-4.76,6.2-3.04.33-5.79-1.83-6.18-4.87Z"/><path id="path431" class="cls-4" d="m288.81,160.92c-.22-2.18,1.3-4.16,3.47-4.51,2.22-.24,4.23,1.34,4.51,3.56.22,2.18-1.3,4.16-3.47,4.51-2.23.25-4.24-1.34-4.51-3.56Z"/><path id="path433" class="cls-5" d="m340.76,297.69c-.65-5.98,3.52-11.42,9.47-12.35,5.97-.55,11.31,3.74,12.06,9.69.65,5.98-3.52,11.42-9.47,12.35-5.95.47-11.24-3.78-12.06-9.69Z"/><path id="path435" class="cls-5" d="m322.75,262.6c-.32-3,1.77-5.73,4.76-6.2,2.99-.28,5.66,1.87,6.04,4.85.37,2.98-1.74,5.7-4.72,6.07-2.98.37-5.7-1.74-6.07-4.72h0Z"/><path id="path437" class="cls-5" d="m364.67,211.12c-.47-4.72,2.8-9,7.48-9.78,4.73-.44,8.96,2.95,9.56,7.66.47,4.72-2.8,9-7.48,9.78-4.73.43-8.95-2.96-9.56-7.66Z"/><path id="path439" class="cls-5" d="m314.73,118.3c-.56,5.12,3,9.78,8.09,10.59,5.11.45,9.68-3.2,10.35-8.29.54-5.13-3.02-9.78-8.11-10.59-5.11-.45-9.67,3.21-10.32,8.29Z"/><path id="path441" class="cls-5" d="m429.92,172.15c-.51,5.1,3.21,9.66,8.31,10.17,5.1.51,9.66-3.21,10.17-8.31.51-5.04-3.12-9.56-8.16-10.15-5.11-.47-9.68,3.2-10.32,8.29Z"/><path id="path443" class="cls-5" d="m376.3,351.04c-.6,5.7,3.36,10.87,9.02,11.79,5.69.51,10.77-3.57,11.49-9.24.61-5.7-3.36-10.87-9.02-11.77-5.69-.52-10.77,3.55-11.49,9.22Z"/><path id="path445" class="cls-5" d="m411.56,275.51c-.61,5.7,3.35,10.88,9.02,11.79,5.7.51,10.78-3.57,11.52-9.24.6-5.7-3.36-10.87-9.02-11.79-5.7-.52-10.79,3.56-11.52,9.24Z"/><path id="path447" class="cls-5" d="m539.69,337.33c-.6,5.69,3.36,10.86,9.02,11.77,5.69.52,10.77-3.55,11.49-9.22.6-5.7-3.36-10.87-9.02-11.79-5.69-.49-10.76,3.58-11.49,9.24Z"/><path id="path449" class="cls-5" d="m541.83,274c-.46,4.51,2.67,8.6,7.14,9.33,4.48.35,8.44-2.87,9.02-7.33.48-4.51-2.67-8.6-7.14-9.31-4.47-.36-8.44,2.85-9.02,7.3Z"/><path id="path451" class="cls-5" d="m651.82,179.88c-.35,3.33,1.97,6.35,5.27,6.87,3.34.34,6.35-2.05,6.76-5.39.35-3.33-1.97-6.35-5.27-6.87-3.34-.33-6.34,2.06-6.76,5.39Z"/><path id="path453" class="cls-5" d="m654.95,214.32c-.53,4.95,2.91,9.45,7.82,10.23,4.95.44,9.36-3.1,10.01-8.02.51-4.95-2.93-9.44-7.84-10.23-4.94-.44-9.35,3.1-9.98,8.02Z"/><path id="path455" class="cls-5" d="m729.69,253.94c-.28,3.29,2.02,6.23,5.27,6.76,3.34.32,6.33-2.06,6.76-5.39.34-3.33-1.97-6.35-5.27-6.9-3.38-.3-6.38,2.15-6.76,5.52Z"/><path id="path457" class="cls-5" d="m673.35,321.85c-.35,3.34,1.96,6.36,5.27,6.9,3.34.32,6.34-2.08,6.76-5.41.29-3.29-2.01-6.24-5.27-6.76-3.3-.34-6.28,1.99-6.76,5.27Z"/><path id="path459" class="cls-5" d="m669.06,370.17c-.33,3.32,2.08,6.28,5.4,6.62,3.32.33,6.28-2.08,6.62-5.4.33-3.26-2-6.19-5.26-6.6-3.34-.34-6.35,2.05-6.76,5.39Z"/><path id="path461" class="cls-5" d="m627.88,367.67c-.28,3.29,2.02,6.23,5.27,6.76,3.33.31,6.32-2.07,6.76-5.39.34-3.33-1.97-6.35-5.27-6.9-3.38-.3-6.38,2.15-6.76,5.52Z"/><path id="path463" class="cls-5" d="m632.23,317.59c-.46,4.28,2.51,8.17,6.76,8.86,4.28.39,8.09-2.68,8.63-6.94.45-4.27-2.52-8.15-6.76-8.84-4.27-.39-8.08,2.67-8.63,6.92Z"/><path id="path465" class="cls-5" d="m576.25,381.58c-.45,4.27,2.52,8.15,6.76,8.84,4.27.37,8.07-2.67,8.63-6.92.44-4.27-2.52-8.15-6.76-8.86-4.27-.37-8.08,2.69-8.63,6.94Z"/><path id="path467" class="cls-5" d="m643.64,420.32c-.34,3.33,1.97,6.35,5.27,6.9,3.38.47,6.5-1.89,6.97-5.26.47-3.38-1.89-6.5-5.26-6.97-3.38-.47-6.5,1.89-6.97,5.26,0,.02,0,.05,0,.07Z"/><path id="path469" class="cls-5" d="m584,415.39c-.29,3.29,2.01,6.24,5.27,6.76,3.34.32,6.33-2.06,6.76-5.39.35-3.34-1.96-6.36-5.27-6.9-3.38-.32-6.39,2.14-6.76,5.52Z"/><path id="path471" class="cls-5" d="m521.48,398.33c-.46,4.28,2.51,8.16,6.76,8.84,4.27.4,8.09-2.66,8.63-6.92.46-4.28-2.51-8.16-6.76-8.84-4.27-.4-8.09,2.66-8.63,6.92Z"/><path id="path473" class="cls-5" d="m493.44,362.13c-.45,4.27,2.52,8.15,6.76,8.84,4.3.37,8.11-2.75,8.61-7.03.44-4.27-2.53-8.14-6.76-8.84-4.3-.37-8.11,2.75-8.61,7.03Z"/><path id="path475" class="cls-5" d="m599.87,298.66c-.46,4.28,2.51,8.16,6.76,8.84,4.28.39,8.09-2.68,8.63-6.94.45-4.27-2.52-8.15-6.76-8.84-4.28-.39-8.09,2.68-8.63,6.94Z"/><path id="path477" class="cls-5" d="m657.12,72.32c-.6,5.59,3.28,10.67,8.84,11.56,5.56.5,10.53-3.48,11.27-9.02.59-5.59-3.3-10.67-8.86-11.56-5.56-.48-10.51,3.49-11.25,9.02Z"/><ellipse id="ellipse479" class="cls-5" cx="599.8" cy="67.39" rx="6.04" ry="6.18"/><path id="path481" class="cls-5" d="m521.46,128.22c-.28,3.29,2.02,6.23,5.27,6.76,3.34.32,6.33-2.06,6.76-5.39.34-3.33-1.97-6.35-5.27-6.9-3.38-.3-6.38,2.15-6.76,5.52Z"/><path id="path483" class="cls-5" d="m563.85,151.93c-.6,5.69,3.36,10.86,9.02,11.77,5.69.52,10.77-3.55,11.49-9.22.6-5.7-3.36-10.87-9.02-11.79-5.69-.49-10.76,3.58-11.49,9.24Z"/><path id="path485" class="cls-5" d="m528.8,217.88c-.48,4.51,2.67,8.6,7.14,9.31,4.47.36,8.44-2.85,9.02-7.3.46-4.51-2.67-8.6-7.14-9.33-4.47-.34-8.43,2.88-9.02,7.33Z"/><path id="path487" class="cls-5" d="m611.57,220.33c-.59,5.7,3.36,10.86,9.02,11.79,5.69.51,10.77-3.57,11.49-9.24.61-5.7-3.35-10.88-9.02-11.79-5.69-.49-10.76,3.58-11.49,9.24Z"/><path id="path489" class="cls-5" d="m457.35,227.12c-.54,5.12,3.01,9.77,8.09,10.59,5.12.47,9.69-3.2,10.35-8.29.56-5.12-3-9.78-8.09-10.59-5.11-.45-9.68,3.2-10.35,8.29Z"/><path id="path491" class="cls-5" d="m486.61,168.79c-.56,5.12,3,9.78,8.09,10.59,5.11.45,9.68-3.2,10.35-8.29.53-5.12-3.01-9.76-8.09-10.59-5.12-.47-9.69,3.2-10.35,8.29Z"/><ellipse id="ellipse493" class="cls-5" cx="485.48" cy="291.67" rx="10.35" ry="10.59"/><path id="path495" class="cls-5" d="m350.32,362.24c-.34,3.31,1.95,6.32,5.23,6.87,3.34.32,6.33-2.06,6.76-5.39.34-3.33-1.97-6.35-5.27-6.9-3.32-.28-6.28,2.1-6.72,5.41Z"/></g></svg>